<svg xmlns="http://www.w3.org/2000/svg" viewBox="0 0 360 244" width="360" height="244" role="img" aria-labelledby="title description"><title id="title">Effigy Mounds National Monument locator</title><desc id="description">Locator map of Effigy Mounds National Monument; red marker shows the NPS administrative center. Geography: NPS Land Resources Division, U.S. Census Bureau, Natural Earth. Regional orientation, not entrance directions.</desc><style>text{font-family:Arial,Helvetica,sans-serif;fill:#394338}.state-label{font-size:15px;letter-spacing:.25px;paint-order:stroke;stroke:#f4f1e7;stroke-width:3px;stroke-linejoin:round}.park-label{font-size:16px;font-weight:600;paint-order:stroke;stroke:#f6f3e9;stroke-width:3px;stroke-linejoin:round}.scale text{font-size:14px}</style><rect width="360" height="244" fill="#dfedf0"/><path d="M360,0L360,244L0,244L0,0Z" fill="#f5f1e5" stroke="none" stroke-width="0" fill-rule="evenodd"/><path d="M180.7,202.9L131.3,203.4L74.8,202.6L74.4,203.5L75.1,206.1L77.2,206.4L77.9,204.3L78.6,203.9L79.6,204.9L79.3,206.6L77.6,207.3L77.9,209.4L79.6,211.3L79.4,212.9L81.1,217.1L79.5,218.9L81.6,218.7L83.7,219.7L84.2,221.8L87.5,223.1L87.4,226.4L89.3,228L89.7,229.4L91.2,230.3L90,233.8L90.5,235.3L91.4,235.8L93,235.6L94.7,236.7L95.1,238.2L97.6,240.5L99.6,241L99.7,243.1L102,243L102.4,244L107.6,244L108.2,243.4L110.6,243.3L111.7,244L266.2,244L267.2,242.5L264,235.3L263.2,226.8L264.1,220.6L265.4,217L267.3,214.9L266.3,214.4L265.3,215.1L265.4,214.5L264.4,214.5L264.2,213.4L262.6,213L262.9,211.7L262.2,211.3L262.6,210.2L260.4,209.7L259.7,208.1L258.4,207.1L258.4,205.2L255.4,204.2L255.5,202.8L253.6,200.9L180.7,202.9Z" fill="#f3f0e4" stroke="#a6afa1" stroke-width=".9" fill-rule="evenodd"/><path d="M111.7,244L110.8,243.4L108.1,243.4L107.6,244L102.3,244L102,243L99.7,243.1L99.6,241L97.6,240.5L95.3,238.4L95,237.4L0,237.4L0,244Z" fill="#f3f0e4" stroke="#a6afa1" stroke-width=".9" fill-rule="evenodd"/><path d="M0,67.9L2,66.6L4.1,67.4L6.4,66.6L7.2,67.3L9.5,67.5L10.4,68L10.7,70.1L13.3,70.9L14.3,72.3L20.9,73L21.7,74.2L21.7,75.4L24.2,74.6L28.6,76.4L29.2,78.6L32.1,78.6L33.9,79.5L32.9,82.3L34,84L35.8,85.1L36.5,87.5L37.2,88.2L40,87.3L42.1,89.5L44.6,89.1L43.2,89.1L43.2,88.1L42.5,87.6L43.1,86.9L43.2,85.2L42.2,85.1L42.8,84.1L41.8,81.8L40.9,81.9L41.5,80.8L40.3,78.9L39.6,79.1L39.2,78L38.7,78.3L38.8,77.6L36.4,76.3L36.7,75.1L36,74.4L36.9,73.4L36.1,72.5L38,71.1L38.6,68.4L39.4,69L39.5,68.3L40,68.4L40.3,65.7L41.1,65.2L40.3,64.5L40.4,63.3L41.4,62.8L42.2,61.3L41.3,59.9L42.5,58.1L41.2,56.4L43.9,54.9L43.9,53.2L45,51.6L43.6,49.7L43.2,45.5L41.3,45.8L39.1,44.9L40,44L39.8,43.3L38.4,42.7L38.7,41.2L38.2,41.1L40.8,40.9L41.2,35.7L38.9,33.8L39.1,33.2L38,32.9L37.6,31.9L38.6,30.1L37.8,28.9L44.3,28.9L44.3,0L0,0Z" fill="#f3f0e4" stroke="#a6afa1" stroke-width=".9" fill-rule="evenodd"/><path d="M267,0L273.3,8.3L275.1,12.6L273.8,19L274.3,20.5L274,22.1L275.6,24.1L275.1,26.6L276.3,28.2L276.3,30.1L275.6,31.6L277.1,35.2L276.4,36.9L276.9,37.9L281.1,40.1L283.3,43.5L280.5,47L279.4,49.7L278.1,50.7L277.9,54.7L279.4,61.1L279.5,64.3L281.4,65.7L281.7,68.8L282.4,69L283.5,74.3L284.3,74.4L288.1,77.5L298.8,80.4L301.6,86.1L301.7,88L360,88.5L360,0Z" fill="#f3f0e4" stroke="#a6afa1" stroke-width=".9" fill-rule="evenodd"/><path d="M67.1,154.6L67.9,150.9L67.2,150.2L65.8,150.3L63.7,149.4L63.5,148.6L64.6,147.4L64.3,145.7L63.3,145.5L62.5,147.7L60.2,145.7L60.7,143.5L59.1,141.2L60.1,139.1L58.9,137.2L59.3,136.3L61.1,135.9L59.6,133.9L60.8,132.8L61.4,130.4L59.6,129.1L59.4,127.3L58,126.1L57.2,124.2L58.3,123L57.9,121.8L58.6,119.9L56,119.6L56.2,118.1L55.7,117.8L54.3,118.6L53.7,118.3L54.5,116.5L52.2,115.4L52.4,111.5L50.6,110.4L48.9,108.3L48.4,105.8L50,104.6L49.8,103.1L48.1,101.3L47.7,99.3L45.8,97.4L45.9,94.2L47.5,91.7L47.2,90L46.5,89.3L44.6,89.1L42.1,89.5L40,87.3L37.2,88.2L36.5,87.5L35.8,85.1L34,84L32.9,82.3L33.9,79.5L32.1,78.6L29.2,78.6L28.6,76.4L24.2,74.6L21.7,75.4L21.7,74.2L20.9,73L14.3,72.3L13.3,70.9L10.7,70.1L10.3,67.9L9,67.4L7.2,67.3L6.4,66.6L4.1,67.4L1.8,66.6L0,67.9L0,237.4L95,237.4L93.2,235.7L91.3,235.8L90.3,235L90,233.8L91.2,230.3L89.7,229.4L89.3,228L87.4,226.4L87.8,223.9L87.4,222.9L84.2,221.8L83.7,219.7L81.6,218.7L79.5,218.9L81.1,217.1L79.4,212.9L79.6,211.3L77.9,209.4L77.6,207.3L79.3,206.6L79.6,204.9L78.6,203.9L77.9,204.3L77.2,206.4L74.8,206L74.3,203.3L75.4,201.3L73.9,198.4L71.3,197.1L70.8,195.5L69.4,194.5L69.6,192.7L71.7,191L71.1,186L72.8,184.2L71.4,181.9L71.9,179.2L70.2,177.8L70.6,175.7L69.6,174.3L70.4,172.5L69.5,168.6L70,167.9L71.1,168L71.3,167.3L70.4,166.7L68.1,166.8L67.5,166L68.3,163.9L67.5,160.1L68.5,159.9L68.2,161.2L68.6,161.5L69.8,160.9L70,159.9L69.4,158.9L67.7,158.7L66.3,157.5L66.4,156.8L67.5,156L67.1,154.6Z" fill="#f3f0e4" stroke="#a6afa1" stroke-width=".9" fill-rule="evenodd"/><path d="M70.5,29L37.8,28.9L38.6,30.1L37.6,31.9L38,32.9L39.1,33.2L38.9,33.8L41.2,35.7L40.6,38.7L41,40.6L39.9,41.3L38.3,41.1L38.7,42.1L38.4,42.7L39.8,43.4L40,44L39,44.5L39.6,45.5L43.2,45.5L43.6,49.7L45,51.6L43.9,53.2L43.9,54.9L41.2,56.4L42.5,58.1L41.3,59.9L42.2,61.3L41.4,62.8L40.4,63.3L40.3,64.5L41.1,65.2L40.3,65.7L40,68.4L39.5,68.3L39.4,69L38.6,68.4L38,71.1L36.1,72.5L36.9,73.4L36,74.4L36.7,75.1L36.4,76.3L38.8,77.6L38.7,78.3L39.2,78L39.6,79.1L40.3,78.9L41.5,80.8L40.8,81.8L41.8,81.8L42.8,84.1L42.2,85.1L43.2,85.2L43.1,86.9L42.5,87.5L43.2,88.1L43.2,89.1L46.5,89.3L47.2,90L47.5,91.7L45.9,94.2L45.8,97.4L47.7,99.3L48.1,101.3L49.8,103.1L50,104.6L48.4,105.8L48.8,108.1L50.6,110.4L52.4,111.5L52.3,115.6L54.4,116.3L53.6,117.9L53.9,118.5L55.7,117.8L56.2,118.1L56,119.6L58.6,120L57.9,121.8L58.3,123L57.2,124.2L58,126.1L59.4,127.3L59.6,129.1L61.5,130.6L60.7,132.8L59.6,133.9L61.1,135.9L59.3,136.3L58.9,137.2L60.1,139.1L59.1,141.2L60.7,143.5L60.1,145.6L62.5,147.7L63.2,145.7L64.1,145.5L64.7,147.2L63.5,148.6L63.7,149.4L67.8,150.8L67.1,154.4L67.5,156L66.2,157.3L67.6,158.7L69.5,159L70,160.2L68.6,161.5L68.2,161.2L68.5,159.9L67.5,160.1L68.3,163.9L67.6,166.1L68.1,166.8L70.5,166.7L71.4,167.4L69.5,168.6L70.4,172.5L69.6,174.3L70.6,175.7L70.2,177.8L71.9,179.3L71.4,181.9L72.8,184.4L71,186.2L71.6,191L69.7,192.6L69.3,193.8L69.5,194.7L70.9,195.6L71.3,197.1L74.3,198.9L75.5,201.5L74.7,202.6L141,203.4L211.2,202.3L253.6,200.9L255.5,202.8L255.4,204.2L258.4,205.2L258.4,207.1L259.7,208.1L260.4,209.7L262.6,210.2L262.6,212.8L264.3,213.4L264.5,214.7L265.4,214.5L265.8,215.1L266.3,214.4L267.3,214.9L269.2,214.2L269,210.9L269.8,207.8L269,206L268,205.3L267.9,204.4L270.8,200.9L274.7,199.4L277.6,199.5L280.4,197.6L281.8,191L281.8,188.5L285.5,183.8L287.4,182.5L288,180.6L288.3,172.1L286.1,168.3L284.1,168L280.9,163.5L282.6,159.7L283.9,153.2L286.7,152L289,152.8L292.7,150.8L297.2,151.1L301.1,150.3L303.8,147.4L306.2,146.5L308,147L309.8,146.7L311.9,144.2L315,142.9L315,139.3L315.4,137.4L316.3,136.3L316.5,133.6L317.9,132.2L322.2,129.7L322.1,127.6L323.4,123.9L322.9,120.9L324,118.1L322.9,115.8L322.8,111L321.3,110.5L320.6,109L314.4,106.1L312.8,104.8L311.1,101.7L311.8,99.1L310.5,97.1L309.1,95.4L305.6,93.5L305,92.1L301.2,89.8L302,87.4L298.9,80.5L288.1,77.5L283,73.5L281.4,65.7L279.4,64.2L279.4,61.1L277.9,54.7L278.1,50.7L279.4,49.7L280.5,47L283.3,43.5L281.1,40.1L276.7,37.7L276.4,36.8L277.1,35.5L277,34.2L275.6,31.6L276.2,28.9L70.5,29Z" fill="#e0e8d3" stroke="#a6afa1" stroke-width=".9" fill-rule="evenodd"/><path d="M360,88.5L301.7,88L301.1,89.2L301.6,90.2L305,92.1L305.6,93.5L309.1,95.4L311.6,98.7L311.1,101.7L312.9,104.9L320.6,109L321.3,110.5L322.9,111.3L322.9,115.8L324,118.1L322.9,120.9L323.4,123.9L322.1,127.6L322.1,129.8L317.9,132.2L316.4,133.8L316.3,136.3L315.4,137.4L315,139.3L315,142.9L311.9,144.2L309.8,146.7L305.6,146.6L303.5,147.7L301.1,150.3L297.2,151.1L292.7,150.8L289,152.8L286.7,152L283.8,153.4L282.6,159.7L280.9,163.5L284.1,168L286.1,168.3L288.3,172.1L288.5,175.8L287.6,182.3L285.5,183.8L281.8,188.5L281.8,191L280.4,197.6L277.6,199.5L274.7,199.4L270.8,200.9L268.1,204.1L268,205.3L268.9,205.8L269.8,207.7L269,211.1L269.4,213.7L266.1,215.9L265.3,217.2L263.5,223.4L263.2,226.7L264,235.3L267.3,241.8L266.2,244L360,244Z" fill="#f3f0e4" stroke="#a6afa1" stroke-width=".9" fill-rule="evenodd"/><path d="M44.3,0L44.3,28.9L276.2,28.9L275.1,26.6L275.6,24.1L274,22L274,16.5L275.1,12.6L273.3,8.3L267,0Z" fill="#f3f0e4" stroke="#a6afa1" stroke-width=".9" fill-rule="evenodd"/><svg x="265.7" y="31.3" width="22" height="24" viewBox="0 0 256 256"><path d="M128,16a88.1,88.1,0,0,0-88,88c0,75.3,80,132.17,83.41,134.55a8,8,0,0,0,9.18,0C136,236.17,216,179.3,216,104A88.1,88.1,0,0,0,128,16Zm0,56a32,32,0,1,1-32,32A32,32,0,0,1,128,72Z" fill="#c74737" stroke="#fff" stroke-width="9"/></svg><text class="state-label" x="175.4" y="114.1" text-anchor="middle">IOWA</text><text class="park-label" x="62.1" y="43.3"><tspan x="62.1" dy="0">Effigy Mounds National</tspan><tspan x="62.1" dy="20">Monument</tspan></text><g class="scale" transform="translate(14 226)"><path d="M0,-5V0H43.1V-5" fill="none" stroke="#59605a"/><text x="0" y="-9">0</text><text x="43.1" y="-9" text-anchor="middle">50</text><text x="65.1" y="-9">mi</text></g></svg>
