<svg xmlns="http://www.w3.org/2000/svg" viewBox="0 0 360 244" width="360" height="244" role="img" aria-labelledby="title description"><title id="title">Prince William Forest Park locator</title><desc id="description">Locator map of Prince William Forest Park; red marker shows the NPS administrative center. Geography: NPS Land Resources Division, U.S. Census Bureau, Natural Earth. Regional orientation, not entrance directions.</desc><style>text{font-family:Arial,Helvetica,sans-serif;fill:#394338}.state-label{font-size:15px;letter-spacing:.25px;paint-order:stroke;stroke:#f4f1e7;stroke-width:3px;stroke-linejoin:round}.park-label{font-size:16px;font-weight:600;paint-order:stroke;stroke:#f6f3e9;stroke-width:3px;stroke-linejoin:round}.scale text{font-size:14px}</style><rect width="360" height="244" fill="#dfedf0"/><path d="M359,50L355,56.5L354.9,55.2L359.9,47.1L359,50Z" fill="#f5f1e5" stroke="none" stroke-width="0" fill-rule="evenodd"/><path d="M357.1,13.8L355.5,14L357.1,9.8L360,8L360,11.8L357.1,13.8Z" fill="#f5f1e5" stroke="none" stroke-width="0" fill-rule="evenodd"/><path d="M303.2,242.8L300.8,244L299.5,244L303.2,242.8Z" fill="#f5f1e5" stroke="none" stroke-width="0" fill-rule="evenodd"/><path d="M308.1,214.2L307.6,215.1L305.4,210.4L307.7,211.9L308.1,214.2Z" fill="#f5f1e5" stroke="none" stroke-width="0" fill-rule="evenodd"/><path d="M318.4,127L316.8,127.6L322,119L326.3,109.3L325,114.4L318.4,127Z" fill="#f5f1e5" stroke="none" stroke-width="0" fill-rule="evenodd"/><path d="M311.2,240.7L306.7,241.9L306.3,241.5L311.5,239L313.3,226.4L312.6,218L313.4,220.2L314.2,226.8L313.9,231.7L312.4,239L311.2,240.7Z" fill="#f5f1e5" stroke="none" stroke-width="0" fill-rule="evenodd"/><path d="M360,0L360,6.3L358.3,7.3L355.8,10.1L354.5,13.5L355.3,16.6L360,17.5L360,37.8L357.5,48L352.3,56.2L349.7,55.6L350.3,58.3L349,62.6L347.4,64.5L346,64.3L343.1,66.6L343,68.6L336.6,79.1L332.2,81.7L331.2,81.3L333.1,72.9L327.9,70.1L325,70.3L321.8,67L317.7,64.6L311.9,58.1L311.9,53.3L315.4,45.3L317.7,43.6L324.4,41.8L327.1,37L323.8,40.8L318.8,42.1L316.1,43.5L309.7,51.7L310.4,55.4L310.2,58.7L315.7,67.1L316.4,75.2L319.1,80.6L323.4,87L326.6,88.8L326.8,91.1L325.3,95L323.3,96.8L325.9,96.4L327.2,97.3L328.4,100.5L328.3,103.8L327.9,105.7L327.1,106.4L327.1,104.5L326.6,103.9L325.7,104.7L324.2,111.2L322,111.7L319.8,116.6L317.7,119.4L309.4,138L309.8,141.1L306,142.9L302.1,146.8L300.7,152.4L298,158.6L296.3,156L295.9,153.8L296.6,148L299.6,138.5L302.8,132.6L305.3,129.8L307.3,124.1L304.8,123.3L300.8,123.4L302.7,118.4L300.7,116.1L298.2,114.9L300.4,110.9L300,108.5L300.6,106.6L299.5,106.9L296.9,109.6L296.3,107.9L294.1,110.1L288.6,106.6L286.8,103.4L285.8,100.9L286.8,96.4L289.1,95.6L292,96.3L295.8,96.3L295.2,95.3L293.9,95.5L289.9,91.8L288.6,89.6L286.4,89L285.4,91.1L284.2,91.7L285.6,87L287.4,86.8L290.1,85.5L289.3,82.8L287.6,81.6L284.6,83.1L285.2,78.8L287.5,78.8L289.5,79.6L291.2,75.7L291.3,73.9L288.4,76.5L287.8,71L290.6,65.7L293.3,63.4L300,63L295.7,61.6L300.1,57.3L296.8,57.5L297.2,54.1L293.7,55.1L292.9,56.6L293.1,59L292.5,60.6L288.5,62.9L288.2,61.1L287.4,60.4L287.1,64.1L286.4,65.3L284.6,61.8L283.6,65.3L282.1,66.1L282.2,68.3L281.5,69.5L276.5,67.6L276.4,68.3L279.2,72.4L281.3,73.8L281.6,76L279.8,77.9L276.9,76.4L279.1,81.6L278.2,83.6L277.6,90.3L278.8,99.3L282.4,106.3L280.9,106.6L276.4,103.4L273.9,99L272.9,95.9L273.2,99.1L274.1,102.6L282,110.6L284.5,116.1L284.2,118.4L280.4,114.7L275.7,112.3L269.8,110.9L266.4,105.4L266.4,107.7L265.7,109.6L262.3,105.2L261.9,103L259.3,103.2L256.7,105.1L254.1,104.6L253.8,100.9L254.5,98.9L257.4,94.2L260.1,91.8L261.3,88.7L260.9,84L260.4,88.8L258.8,91.2L253.1,96.4L251.3,105.1L252.7,107L254.1,107.5L258.2,106.3L260.4,106.8L265.1,113.7L274,116.4L277.2,118.1L279.8,121.7L283.8,123.7L286.8,126.7L286.9,128.7L285.9,131L285.4,134.1L284.1,136.1L281,136.3L279.1,135.8L267.7,123.8L264,118.1L259.5,115L258.2,115L264.5,120.7L271.6,130.3L274.8,132.7L277.2,136.4L279.4,138.1L285.4,140.6L283.3,142.3L286.7,143.8L287.2,146.6L286.9,149.8L282.2,148.5L282.5,152.2L280.4,153.4L277.6,151.8L270.1,143.4L270.8,145.8L275.1,151.3L279,154.5L282.2,156L284.7,158.7L286.2,162.8L284.3,164.5L282.2,165.5L275.4,159L274.4,155.6L272,155.8L261.7,151.5L253.4,151L255.3,152.4L261.9,153.5L264.5,155.4L273,157.7L274.3,163.1L278.7,166.8L279.3,169.5L282.3,169.8L287.5,167.1L295.8,168.9L299.5,179.8L304,198.2L311.6,215.8L305,203.6L302.2,196.4L298.6,180.9L297.6,179.7L297,180.7L296.7,182.3L297.1,183.5L296,187.7L296.5,189.6L298.3,191.6L300.3,196.6L301.9,203.2L299.7,200.5L290.8,196.1L290.7,201.8L286.6,199.9L288.1,203.1L284.9,202.1L282.8,202.3L281.4,205.1L279.6,206.8L276.9,207.4L272.8,204.8L271.5,201.7L271,198.2L271.2,209.9L275.1,210.5L283.7,210.1L286.9,209.5L288.8,208.4L293.4,209.3L293.8,213.3L293,221.4L294.2,221.3L295.7,220L296.5,212.5L300.7,209.8L302.1,210L303.5,212.4L304.4,218.1L303.4,223.2L296.9,229.2L292.3,234.7L289.9,235.8L282.6,233.8L280.7,233.5L279.2,234L277.8,229.2L276.3,228.1L275.1,228.3L274.3,231.5L270.7,232.5L265.8,231.1L260.6,228.4L262.8,231.3L277.1,237.9L278.4,239.4L275.5,244L0,244L0,0Z" fill="#f5f1e5" stroke="none" stroke-width="0" fill-rule="evenodd"/><path d="M304,68.6L302.9,48.2L178.1,48.2L177.7,67.2L177.8,70.4L178.2,70.5L182.5,66.6L184.4,66.3L184.7,65.3L185.7,64.7L185.6,63.9L187,63.6L188.2,62.2L188.8,62.5L188.8,61.3L189.4,61.8L190.5,60.6L190.8,58.7L192.3,59L192.7,58.4L193.2,59.2L195.7,60.3L195.6,59.3L197.1,58.3L197.9,56.7L198.5,56.7L199.7,54.8L200.5,55L200.1,53.9L201.1,53.2L201.2,51.8L202.2,51.3L201.8,52.5L202.8,52.3L203.3,52.8L201.8,53.3L202.3,54.2L203.3,54L203.6,55L205.2,56L208.1,56.1L209,56.9L212.3,57L212.9,56L212.5,55.5L213.3,56.1L213.3,55.4L214,55.6L212.6,54L214.7,54.1L213.5,52.4L215.4,53.1L215.2,52.2L216.1,52.3L216.1,51.7L219.1,52.6L220.5,50.8L220.2,50.3L222.1,49.3L225.4,50.4L227.8,53.3L229.6,53.1L229.9,54.1L230.1,52.6L231.7,53.5L232,52.7L233.6,53.2L233.6,54.9L231.9,55.3L232.8,57.1L234,56.5L233.3,57.8L236,57.9L235,58.6L235.6,59.3L234.9,59.4L235.4,60.1L234.8,60.4L236.4,61L236.9,62.1L236.2,64.7L241.1,66.2L242.7,66L243.6,67.8L246.4,69.4L244.1,73L244.3,74L245.5,74.5L246.3,76L251.6,77L253.6,78.1L253.3,79.1L254,80.2L256.9,80.7L257.9,82L260.6,79.4L265,83.8L260.6,88.2L260.5,91.3L257.8,92.7L257.6,94.9L253.6,96.7L251.2,101.8L251,103.7L252.3,107.4L253.6,107.9L255.9,107.5L257.3,106.3L259.1,106.3L260.5,104.9L261.6,106.1L261,109L263.2,111.1L263.7,113.2L267.4,115.1L269.9,114.9L275.3,115.8L275.6,117.6L277.6,118.9L278.3,121L280,121.6L281.8,123.6L284.5,124.6L287.8,127L294,124.1L297.7,124.5L297.4,126.2L302.5,125.9L303.9,124.7L305.8,124.1L307.7,124.4L308.5,122.4L324,121L328.9,108.8L330.1,102.8L306.2,102.4L304,68.6Z" fill="#f3f0e4" stroke="#a6afa1" stroke-width=".9" fill-rule="evenodd"/><path d="M347.7,66.4L351,65.4L354.5,61.1L360,51.6L360,14.9L355.9,15.8L354.7,14.8L355.1,12.6L356.2,12.2L356.6,9.1L357.3,8.5L360,8.4L360,0L326.4,0L326.8,0.8L326,2.3L325.1,3L323.8,2.8L323,4L323.5,4.8L322.7,6.5L323.6,7.2L322.8,8.4L323.1,11.5L323.9,12L325.7,11.6L327.3,13L327.7,18.3L330.8,19.1L331.7,21.7L334.1,23.6L335,25.5L337.4,27L339,29.8L336.9,31.1L335.6,30.8L334.3,32.7L331.7,33.4L328,35.8L327.2,37.1L325.3,37.9L324.8,41.2L321.3,42.5L318.1,42.9L314.4,45.9L313.5,48.4L310.7,52.1L310.9,53.3L312.3,54.8L311.6,56L311.8,57.8L310.7,57.9L310.7,59.6L318.8,68.4L323.9,76.8L329.1,88.3L332.7,84.4L335.6,83.7L338.7,80.6L339.3,78.8L341.6,75.9L342.3,73L347.7,66.4Z" fill="#f3f0e4" stroke="#a6afa1" stroke-width=".9" fill-rule="evenodd"/><path d="M114.1,243.9L82.9,242.4L80.1,243.3L79.4,241.8L77.8,243.9L77.2,244L77.3,243.4L74.2,244L115.3,244L114.1,243.9Z" fill="#f3f0e4" stroke="#a6afa1" stroke-width=".9" fill-rule="evenodd"/><path d="M309.6,43.2L312.7,43.4L315.6,44.8L318.1,42.9L320.9,42.6L324.7,41.2L325.3,37.9L327.2,37.1L328,35.8L331.7,33.4L334.3,32.7L335.6,30.8L336.9,31.1L339,30L337.4,27L335,25.5L334.1,23.6L331.7,21.7L330.8,19.1L327.7,18.3L327.3,13L325.7,11.6L323.9,12L323.1,11.5L322.8,8.4L323.6,7.2L322.7,6.5L323.5,4.8L323,4L323.8,2.8L325.1,3L326,2.3L326.8,0.8L326.4,0L142.8,0L142.8,48.2L303.4,48.2L305.7,44.8L309.6,43.2Z" fill="#f3f0e4" stroke="#a6afa1" stroke-width=".9" fill-rule="evenodd"/><path d="M360,0L360,8.4L357.2,8.5L356.6,9.1L356.2,12.2L355.1,12.6L354.7,14.4L354.9,15.3L355.9,15.8L360,14.9L360,0Z" fill="#f3f0e4" stroke="#a6afa1" stroke-width=".9" fill-rule="evenodd"/><path d="M312.4,49.7L313.5,48.4L314,46.4L315.9,45L312.5,43.3L310.6,43.1L307.1,44L302.9,48.2L306.2,102.4L330.1,102.8L329.1,88.2L323.9,76.8L318.8,68.4L310.7,59.6L310.7,57.9L311.8,57.8L311.6,56L312.3,54.8L310.9,53.3L310.7,52.1L312.4,49.7Z" fill="#f3f0e4" stroke="#a6afa1" stroke-width=".9" fill-rule="evenodd"/><path d="M231.5,184.7L150.4,184.7L103.6,182.8L102.6,185L103,188L101.4,190.4L102.6,193.7L100.7,193.5L99.7,192.5L97.6,193.6L95.8,195.1L91.6,202.9L90.9,202.6L90,203.6L88.3,203.6L87.7,201.6L86.7,201.9L85.5,201.2L84.4,202.4L82.9,202.2L80.8,203.1L78.8,204.5L77.1,207.7L73.8,210L72,209.5L71.9,208L72.7,206.6L71.3,205.2L70,205.8L66.4,208L66.5,209.3L65.5,211.2L64.9,211.4L63.1,210.1L62.3,210.4L62.2,211.2L61.6,211.1L62.4,213.3L61.5,213.7L61.7,214.9L60.7,215.6L60.2,217L59.1,217.8L56.3,217.1L54.8,218.1L53.5,218.2L52.6,219.7L50.3,220.1L50.3,221.1L48.8,222.8L47,222.6L45.5,224.3L43.8,224.7L42,226.8L39.1,226.8L38.3,226.1L37.2,226.7L33.3,226.8L31.1,228.4L29.1,228.7L28,230.6L26.3,231.1L24.2,233.3L24.8,235.1L23.7,235.9L24.3,238.1L23.6,239L20.7,240.7L18.6,240.7L17.4,239.5L15.2,241.3L14.9,244L76,244L77.3,243.4L77.2,244L78,243.8L79.4,241.8L80.1,243.3L82.9,242.4L115.5,244L307.3,244L310,243.1L312.1,243.8L313.1,243.1L315.2,234.4L316,227.6L315.7,222.7L314.8,218.9L305.6,197.5L302.6,184.4L231.5,184.7Z" fill="#f3f0e4" stroke="#a6afa1" stroke-width=".9" fill-rule="evenodd"/><path d="M0,0L0,72.9L1.8,74.9L4.5,76L9.7,74.1L10.6,76.9L13.2,77.6L14.7,78.9L15.2,81.1L17.1,83.8L17.2,86.4L17.8,87.5L22.6,89.1L26.3,88.3L29.4,89.5L30.5,91.3L32.3,92.2L32.8,94L36.2,95.2L36.9,95L37.7,93L41.2,92L43,93.1L46.7,94L48.7,96.5L50.5,95.2L53.7,95.6L55.1,93.3L57,92.3L57.8,91L59.8,90.9L62.6,89.7L63.2,90.4L63,92.5L64.2,96.9L65.8,98L68.1,98.1L69.1,98.8L70.6,100.9L72,101.9L72.6,104.2L74.5,104.8L79,103.3L81.5,103.1L82.8,97.3L83.8,96.5L85.9,96.7L86.8,96.1L86.3,90.7L85.2,88.3L87.8,86.1L87.9,83.6L91.4,78.2L92.6,78L93.4,79.5L95,79.7L96.1,82.2L95.1,83.8L96,84.5L97.6,83.8L98.6,81.5L100.7,82.5L100.1,80.7L100.7,78.5L99.2,76.9L99,75.8L100.3,75.8L101.3,75L101,71.4L102,69.9L103.1,69.4L103.4,67.6L107.3,67.7L107.7,64.6L111.1,61.6L112.6,62.2L113.8,64.5L117.4,62.6L119.2,62.5L120.3,60.7L122.1,60L124.1,57L127.5,53.9L129,52.7L130.6,52.5L131.2,49.5L132.3,48.6L131,46.3L132.4,44.9L132.4,42.9L133.6,41.9L133.1,39.8L134.8,40L134.5,38.4L135.3,37.5L135.4,32.9L136.4,31.9L136.5,29.7L140,23.1L139.8,20.4L139,19.5L139.7,18.9L140.2,15.8L137.8,11.2L139.2,9.6L140.9,9.9L142.8,8.8L142.8,0Z" fill="#f3f0e4" stroke="#a6afa1" stroke-width=".9" fill-rule="evenodd"/><path d="M25.4,182.7L0,182.2L0,244L14.9,244L15.2,241.3L17.4,239.5L18.6,240.7L21.7,240.4L24.2,238.3L23.7,236.1L24.8,235.1L24.2,233.3L26.3,231.1L28,230.6L29.1,228.7L31.1,228.4L33.3,226.8L37.2,226.7L38.3,226.1L39.1,226.8L42,226.8L43.8,224.7L45.5,224.3L47,222.6L48.8,222.8L50.3,221.1L50.3,220.1L52.6,219.7L53.5,218.2L54.8,218.1L56.3,217.1L59.1,217.8L60.2,217L60.7,215.6L61.7,214.9L61.5,213.7L62.4,213.3L61.6,211.1L62.2,211.2L62.3,210.4L63.1,210.1L64.9,211.4L65.5,211.2L66.5,209.3L66.4,208L71.1,205.2L72.7,206.6L71.9,208L72,209.5L73.8,210L77.1,207.7L78.8,204.5L80.8,203.1L82.9,202.2L84.4,202.4L85.5,201.2L86.7,201.9L87.7,201.6L88.3,203.6L90,203.6L90.9,202.6L91.6,202.9L95.8,195.1L97.6,193.6L99.7,192.5L100.7,193.5L102.6,193.7L101.4,190.3L103,188L102.6,185L104.7,181.8L95.3,181.6L94.9,182.5L36,182.3L35.5,183L25.4,182.7Z" fill="#f3f0e4" stroke="#a6afa1" stroke-width=".9" fill-rule="evenodd"/><path d="M264.8,184.3L302.6,184.4L300,176.1L298.2,167.8L299.5,162.8L303.7,158.5L305.4,153.3L307.8,150.4L309.7,144.6L311.7,141.2L311.3,139.1L314,132L315.5,129.8L317.4,130.3L319.4,129.1L324,121L308.5,122.4L307.7,124.4L305.8,124.1L303.9,124.7L302.5,125.9L297.4,126.2L297.7,124.5L294,124.1L287.8,127L284.5,124.6L281.8,123.6L280,121.6L278.3,121L277.6,118.9L275.6,117.6L275.3,115.8L269.9,114.9L267.4,115.1L263.7,113.2L263.2,111.1L261,109L261.6,106.1L260.5,104.9L259.1,106.3L257.3,106.3L256.4,107.3L252.6,107.6L251,103.6L251.4,100.9L253.6,96.7L257.6,94.9L257.8,92.7L260.5,91.3L260.5,84.7L258.5,82.9L257,80.7L253.6,79.9L253.5,78.1L250.5,76.5L246.5,76L245.5,74.5L244.3,74L244.4,71.9L245.7,71.1L246.4,69.5L243.6,67.7L242.8,66.1L241.1,66.2L239,65.3L237.2,65.6L233.9,73.5L216.3,59.2L215.9,61.6L216.5,62.5L215.7,63.8L216.6,64.2L213.9,68.1L214.6,68.7L213.2,70.7L214.4,72L208.7,77.8L209.5,78.4L207.7,80.7L206.8,80L204.5,82.9L203.7,83.3L203.8,81.9L201.5,84L198.7,89.4L194.3,85.8L191.4,91L191.1,93.8L189.9,94L187.1,101L184.7,104.2L183.7,104.5L178.1,102.5L176.1,98.5L172.3,96.7L171.6,98.5L171.8,100L170.6,101.2L170.9,103.6L169.6,105.8L169.7,106.5L168.4,106.8L166.8,109L167.5,110.6L163.1,114.3L163.2,115.5L162.3,116.5L162.9,117.6L160.4,122.4L154.9,127.5L152.7,130.8L153.1,131.8L151.7,132.6L151.8,133.9L150.4,135.3L151.3,137.4L152.9,138.1L149.3,140.9L149.8,141.6L149.2,142.1L150.8,142.2L149.9,143.5L144.3,146.9L143.1,144.4L141.7,144.8L134.3,149.1L133.9,148.2L131.3,146.7L130.5,148.6L131.6,150.2L130,151.5L127.7,152.6L127.2,152.1L123,153.1L118.9,155L114.2,150.6L112.5,153.4L111.4,153.4L110.3,154.3L109.7,154L109.4,155.1L107.8,156.2L103.6,156.4L102.1,154.8L101.5,154.9L100.9,153.2L97.8,152.9L97.4,151.5L95.1,149.6L94.9,146.3L93.1,145.6L92.8,144.9L95.2,143L93.8,142L80.9,153.6L75.8,155.4L68.3,159.9L68.3,163.2L63.3,166L63.7,168.2L63,169.9L58.6,171.7L56.4,171.4L54.4,174.4L54.3,176.2L48.4,177.5L44.5,179.4L40.9,179.5L36,182.3L94.9,182.5L95.3,181.6L104.7,181.8L103.6,182.8L156.3,184.8L264.8,184.3Z" fill="#e0e8d3" stroke="#a6afa1" stroke-width=".9" fill-rule="evenodd"/><path d="M257.9,82L260.6,84.8L260.6,88.1L265,83.8L260.6,79.4L257.9,82Z" fill="#f3f0e4" stroke="#a6afa1" stroke-width=".9" fill-rule="evenodd"/><path d="M73.6,156.7L80.9,153.6L93.9,141.8L92.3,142.2L91.3,141.6L91.1,142.4L90.2,141.2L88.2,141.4L87.8,140.7L88.4,139.9L87.4,139.6L87.1,138.5L86.6,138.4L86.8,137.3L86.2,137.4L86.4,138.2L85.4,138.2L84.7,136.8L82.4,136.1L82.7,134.9L81.4,133.2L82.2,132.3L81.4,132.3L81.7,131.8L79.6,130L79.1,130.3L78.5,127.1L77,125.8L76.6,126.4L76.4,125.3L75.7,125L77,122.8L75.1,122.1L74.1,119.2L71.2,116.2L70.9,115.1L72,114.8L72.5,112.8L72,112L73.3,110.8L73.4,108.5L72.5,107.3L72.3,102.4L69.1,98.8L68.1,98.1L65.8,98L64.2,96.9L63,92.5L62.9,89.9L61.5,89.9L59.6,91L57.9,90.9L56.8,92.5L55.1,93.3L53.7,95.5L50.5,95.2L48.9,96.5L46.6,93.9L43,93.1L41.2,92L37.7,93L36.9,95L36.2,95.2L32.8,94L32.3,92.2L30.5,91.3L29.4,89.5L26.3,88.3L22.6,89.1L17.8,87.5L17.2,86.4L17.1,83.8L15.2,81.1L14.7,78.9L13.2,77.6L10.6,76.9L9.7,74.1L4.1,76L1.8,74.9L0,72.9L0,182.2L35.5,183L36.9,181.3L40.9,179.5L44.5,179.4L48.4,177.5L54.3,176.2L54.4,174.4L56.4,171.4L58.6,171.7L63,169.9L63.7,168.2L63.3,166L64.4,165.7L64.7,164.9L67.4,164.1L67.6,163.3L68.3,163.2L68.3,159.9L73.6,156.7Z" fill="#f3f0e4" stroke="#a6afa1" stroke-width=".9" fill-rule="evenodd"/><path d="M236.4,64.9L236.9,62.1L236.3,60.9L234.8,60.4L235.4,60.1L234.9,59.4L235.6,59.3L235,58.6L236,57.9L233.3,57.8L234,56.5L232.8,57.1L231.9,55.3L233.6,54.9L233.7,53.3L232,52.7L231.7,53.5L230.1,52.6L229.9,54.1L229.6,53.1L227.8,53.3L225.4,50.4L222.1,49.3L220.2,50.3L220.5,50.8L219.1,52.6L216.1,51.7L216.1,52.3L215.2,52.2L215.4,53.1L213.5,52.4L214.7,54.1L212.6,54L214,55.6L213.3,55.4L213.3,56.1L212.5,55.5L212.9,56L212.1,57L208.9,56.9L208.1,56.1L204.8,55.8L203.6,55L203.3,54L202.1,54L201.8,53.2L203.3,52.8L202.8,52.3L201.8,52.5L201.9,51.5L201,52.2L201.1,53.2L200.1,53.9L200.5,55L199.7,54.8L198.5,56.7L197.9,56.7L197.1,58.3L195.6,59.3L195.7,60.3L193.2,59.2L192.7,58.4L192.3,59L190.8,58.7L190.5,60.6L189.4,61.8L188.8,61.3L188.8,62.5L188.2,62.2L187,63.6L185.6,63.9L185.7,64.7L184.7,65.3L184.4,66.3L182.5,66.6L179.8,69.5L177.8,70.4L178.1,48.2L142.8,48.2L142.8,8.8L140.9,9.9L139.2,9.6L137.8,11.4L140.2,15.8L139.7,18.9L139,19.5L139.8,20.1L140.1,22.6L139.4,24.9L138.3,25.7L136.5,29.7L136.4,31.9L135.4,32.9L135.3,37.5L134.5,38.4L134.8,40L133.1,39.8L133.6,41.9L132.4,42.9L132.4,44.9L131,46.3L132.3,48.6L131.2,49.5L130.6,52.5L129,52.7L127.5,53.9L124.1,57L122.1,60L120.3,60.7L119.2,62.5L117.4,62.6L113.8,64.5L112.6,62.2L111.1,61.6L107.7,64.6L107.3,67.7L103.4,67.6L103.1,69.4L102,69.9L101,71.4L101.3,75L100.3,75.8L99,75.8L99.2,76.9L100.7,78.5L100.1,80.7L100.7,82.5L98.6,81.5L97.6,83.8L96,84.5L95.1,83.8L96.1,82.2L95,79.7L93.4,79.5L92.6,78L91.4,78.2L87.9,83.6L87.8,86.1L85.2,88.3L86.3,90.7L86.7,96.2L85.8,96.7L83.8,96.5L82.8,97.3L81.5,103.1L79,103.3L74.4,104.8L72.6,104L72.5,107.3L73.4,108.5L73.3,110.8L72,112L72.4,113.7L72,114.8L70.9,115.1L71.2,116.2L74.1,119.2L75.1,122.1L77,122.8L75.7,125L76.4,125.3L76.6,126.4L77,125.8L78.5,127.1L79.1,130.3L79.6,130L81.7,131.8L81.4,132.3L82.2,132.3L81.4,133.2L82.7,134.9L82.4,136.1L84.7,136.8L85.4,138.2L86.4,138.2L86.2,137.4L86.8,137.3L86.6,138.4L87.1,138.5L87.4,139.6L88.4,139.9L87.8,140.7L88.2,141.4L90.2,141.2L91.1,142.4L91.3,141.6L92.3,142.2L93.7,141.6L93.8,142.2L94.6,142.3L94.6,143.1L95.2,143L94.3,144L93,144.3L92.9,144.9L94.9,146.3L95.1,149.6L97.4,151.5L97.8,152.9L100.9,153.2L101.5,154.9L102.1,154.8L103.6,156.4L107.8,156.2L109.4,155.1L109.7,154L110.3,154.3L111.4,153.4L112.5,153.4L114.2,150.6L118.9,155L123,153.1L127.2,152.1L127.3,152.6L128.4,152.4L131.6,150.2L130.5,148.6L131.3,146.7L133.9,148.2L134.3,149.1L141.7,144.8L143.1,144.4L144.3,146.9L150.3,143.3L150.8,142.2L149.2,142.1L149.8,141.6L149.3,140.9L152.9,138.1L151.3,137.4L150.4,135.3L151.8,133.9L151.7,132.6L153.1,131.8L152.7,130.8L154.9,127.5L160.4,122.4L162.9,117.6L162.3,116.5L163.2,115.5L163.1,114.3L167.5,110.6L166.8,109L168.4,106.8L169.7,106.5L169.6,105.8L170.9,103.6L170.6,101.2L171.8,100L171.6,98.5L172.3,96.7L176.1,98.5L178.1,102.5L183.7,104.5L184.7,104.2L187.1,101L189.9,94L191.1,93.8L191.4,91L194.3,85.8L198.7,89.4L201.5,84L203.8,81.9L203.7,83.3L204.5,82.9L206.8,80L207.7,80.7L209.5,78.4L208.7,77.8L214.4,72L213.2,70.7L214.6,68.7L213.9,68.1L216.6,64.2L215.7,63.8L216.5,62.5L215.9,61.6L216.3,59.2L233.9,73.5L235.9,68.2L237.6,65.4L236.4,64.9Z" fill="#f3f0e4" stroke="#a6afa1" stroke-width=".9" fill-rule="evenodd"/><svg x="238" y="75" width="22" height="24" viewBox="0 0 256 256"><path d="M128,16a88.1,88.1,0,0,0-88,88c0,75.3,80,132.17,83.41,134.55a8,8,0,0,0,9.18,0C136,236.17,216,179.3,216,104A88.1,88.1,0,0,0,128,16Zm0,56a32,32,0,1,1-32,32A32,32,0,0,1,128,72Z" fill="#c74737" stroke="#fff" stroke-width="9"/></svg><text class="state-label" x="240.9" y="24.1" text-anchor="middle">PENNSYLVANIA</text><text class="state-label" x="71.4" y="52.4" text-anchor="middle">OHIO</text><text class="state-label" x="205.5" y="142.7" text-anchor="middle">VIRGINIA</text><text class="park-label" x="53.2" y="87"><tspan x="53.2" dy="0">Prince William Forest</tspan><tspan x="53.2" dy="20">Park</tspan></text><g class="scale" transform="translate(14 226)"><path d="M0,-5V0H62.2V-5" fill="none" stroke="#59605a"/><text x="0" y="-9">0</text><text x="62.2" y="-9" text-anchor="middle">100</text><text x="84.2" y="-9">mi</text></g></svg>
