<svg xmlns="http://www.w3.org/2000/svg" viewBox="0 0 360 244" width="360" height="244" role="img" aria-labelledby="title description"><title id="title">Rocky Mountain National Park locator</title><desc id="description">Locator map of Rocky Mountain National Park; red marker shows the NPS administrative center. Geography: NPS Land Resources Division, U.S. Census Bureau, Natural Earth. Regional orientation, not entrance directions.</desc><style>text{font-family:Arial,Helvetica,sans-serif;fill:#394338}.state-label{font-size:15px;letter-spacing:.25px;paint-order:stroke;stroke:#f4f1e7;stroke-width:3px;stroke-linejoin:round}.park-label{font-size:16px;font-weight:600;paint-order:stroke;stroke:#f6f3e9;stroke-width:3px;stroke-linejoin:round}.scale text{font-size:14px}</style><rect width="360" height="244" fill="#dfedf0"/><path d="M0,244L0,0L360,0L360,244Z" fill="#f5f1e5" stroke="none" stroke-width="0" fill-rule="evenodd"/><path d="M360,73.1L312.4,73.1L312.7,219.6L360,219.3Z" fill="#f3f0e4" stroke="#a6afa1" stroke-width=".9" fill-rule="evenodd"/><path d="M195,219.5L312.7,219.6L312.4,24.5L47.7,24.5L47.3,157L47.9,162.9L47.8,219.3L195,219.5Z" fill="#e0e8d3" stroke="#a6afa1" stroke-width=".9" fill-rule="evenodd"/><path d="M274.9,244L274.9,243.5L276.4,243.5L276.4,219.2L47.8,219.3L47.8,244Z" fill="#f3f0e4" stroke="#a6afa1" stroke-width=".9" fill-rule="evenodd"/><path d="M236.7,0L236.7,24.5L312.4,24.5L312.4,73.1L360,73.1L360,0Z" fill="#f3f0e4" stroke="#a6afa1" stroke-width=".9" fill-rule="evenodd"/><path d="M0,219.3L47.8,219.3L48,191.9L47.9,162.9L47.3,157L47.7,24.5L0,24.8Z" fill="#f3f0e4" stroke="#a6afa1" stroke-width=".9" fill-rule="evenodd"/><path d="M360,219.3L276.4,219.2L276.4,243.5L360,243.6Z" fill="#f3f0e4" stroke="#a6afa1" stroke-width=".9" fill-rule="evenodd"/><path d="M150.9,24.6L236.7,24.5L236.7,0L0,0L0,24.8L150.9,24.6Z" fill="#f3f0e4" stroke="#a6afa1" stroke-width=".9" fill-rule="evenodd"/><path d="M47.8,244L47.8,219.3L0,219.3L0,244Z" fill="#f3f0e4" stroke="#a6afa1" stroke-width=".9" fill-rule="evenodd"/><path d="M360,243.6L274.9,243.5L274.9,244L360,244Z" fill="#f3f0e4" stroke="#a6afa1" stroke-width=".9" fill-rule="evenodd"/><svg x="163.2" y="33.8" width="22" height="24" viewBox="0 0 256 256"><path d="M128,16a88.1,88.1,0,0,0-88,88c0,75.3,80,132.17,83.41,134.55a8,8,0,0,0,9.18,0C136,236.17,216,179.3,216,104A88.1,88.1,0,0,0,128,16Zm0,56a32,32,0,1,1-32,32A32,32,0,0,1,128,72Z" fill="#c74737" stroke="#fff" stroke-width="9"/></svg><text class="state-label" x="181.6" y="122.2" text-anchor="middle">COLORADO</text><text class="park-label" x="191.2" y="45.8"><tspan x="191.2" dy="0">Rocky Mountain</tspan><tspan x="191.2" dy="20">National Park</tspan></text><g class="scale" transform="translate(14 226)"><path d="M0,-5V0H70.4V-5M35.2,-3V0" fill="none" stroke="#59605a"/><text x="0" y="-9">0</text><text x="35.2" y="-9" text-anchor="middle">50</text><text x="70.4" y="-9" text-anchor="middle">100</text><text x="92.4" y="-9">mi</text></g></svg>
