<svg xmlns="http://www.w3.org/2000/svg" viewBox="0 0 360 244" width="360" height="244" role="img" aria-labelledby="title description"><title id="title">California locator</title><desc id="description">State context map for CA; an exact park location is not shown. Geography: NPS Land Resources Division, U.S. Census Bureau, Natural Earth. Regional orientation, not entrance directions.</desc><style>text{font-family:Arial,Helvetica,sans-serif;fill:#394338}.state-label{font-size:15px;letter-spacing:.25px;paint-order:stroke;stroke:#f4f1e7;stroke-width:3px;stroke-linejoin:round}.park-label{font-size:16px;font-weight:600;paint-order:stroke;stroke:#f6f3e9;stroke-width:3px;stroke-linejoin:round}.scale text{font-size:14px}</style><rect width="360" height="244" fill="#dfedf0"/><path d="M161.7,196.6L159.2,196.4L160.6,195.5L161.7,196.6Z" fill="#f5f1e5" stroke="none" stroke-width="0" fill-rule="evenodd"/><path d="M177.6,215.1L175.7,215L175.1,213.7L176.9,213.8L177.6,215.1Z" fill="#f5f1e5" stroke="none" stroke-width="0" fill-rule="evenodd"/><path d="M197.5,224.1L195.2,223.8L193.1,219.9L193.7,219.4L197.5,224.1Z" fill="#f5f1e5" stroke="none" stroke-width="0" fill-rule="evenodd"/><path d="M166.5,199L164.3,199L162.7,196.8L166,196.5L167.6,197.7L166.5,199Z" fill="#f5f1e5" stroke="none" stroke-width="0" fill-rule="evenodd"/><path d="M169.5,195.3L173.2,196.5L175.2,195.9L175.6,196.5L175.3,197L170.8,197.9L169.4,197.3L168.8,195.6L169.5,195.3Z" fill="#f5f1e5" stroke="none" stroke-width="0" fill-rule="evenodd"/><path d="M197.5,211.3L198.5,212.9L195.7,212.8L194.9,210.6L193.7,210.2L193.5,209.4L193.7,209.2L197.5,211.3Z" fill="#f5f1e5" stroke="none" stroke-width="0" fill-rule="evenodd"/><path d="M226,244L225,243.2L223.8,238.5L221,235.2L219.7,228.2L218.8,227.3L217.7,227.8L217.4,221.5L216.4,217.8L213.6,213.3L207.8,207.7L200.9,202.9L199.1,202.7L198.5,203.7L196.4,203L196.7,200.4L194.6,196.7L188.7,196.6L183,194.6L181.3,193.4L180.7,191.2L174.5,187.5L172.6,188L166.4,186.4L158.5,186.3L155.5,183.8L155.9,178.5L155.2,175.3L155.7,172.4L155.3,171.3L151.6,169.3L151.1,167.8L151.6,165.8L150.9,164.4L148.6,163.1L146.5,160.2L143.8,158.6L142.7,155.9L141.1,154.3L136.9,147.6L133,143.6L132.2,138L134.6,134.3L134.3,131.6L132.9,129.6L127.7,128.4L123.5,123.4L123.3,119.6L121.6,115.7L121.3,110.5L122.6,109.9L123.7,110.1L124,113.1L125.3,114.6L127.7,116.7L129.5,117.2L123.7,106.1L125,105L129.2,104.1L135.9,104.4L137.4,103.8L139.4,103.9L137.6,103.3L132.9,103.5L130.2,102.4L127.9,103.7L123.5,101.9L121.9,102.7L122.2,108.9L121.2,109.2L113.7,103.9L112.5,105.5L113,103L112.9,100L114.7,102.4L114.1,100.7L111.6,98.2L110.2,94.9L107.2,92.9L99.6,84.4L99.3,79.7L97.5,73.8L98.2,70.4L97.2,64.4L92.2,57.1L88.2,53.5L87.6,50.7L87.4,48L89.5,42.2L89.6,43.1L90.1,43.2L90.7,41.5L90.2,41.1L91.7,37L91.6,32.7L92.9,27.4L92,22L91.2,19.7L89.7,18.2L90.3,13.6L87.7,10.5L86.7,6.3L86.7,0L360,0L360,244Z" fill="#f5f1e5" stroke="none" stroke-width="0" fill-rule="evenodd"/><path d="M221.7,0L221.7,13.3L279.4,13.6L331.1,13.3L331.1,0Z" fill="#f3f0e4" stroke="#a6afa1" stroke-width=".9" fill-rule="evenodd"/><path d="M167.3,32L167.3,13.4L88.2,13.3L88.9,14L89,16.5L86.8,15.9L86.1,17.3L87,18.5L90.3,20.6L91.7,26.3L91.6,27.5L90.4,27.4L89.7,28.4L90.1,29.3L91.2,29.6L90.6,32L89.6,33.2L90.8,36.2L90.6,37.4L86.8,45.2L85.4,49.4L86.3,50.9L86.7,54.1L91.4,57.8L91.7,59.3L96,64.3L97.2,69.6L96.5,70.9L96.1,74.2L98.5,81.3L97.6,83.1L98.1,84.7L103.1,89.6L105.9,93.5L109.4,96.3L110,98.4L112.2,101.8L110.9,105L111.2,106.2L113.3,106.6L114.5,105.8L116.7,108.3L118.4,108.7L120,110.1L120.2,116.7L122.2,120.2L122.3,124.1L123.9,126.7L125,126.9L126.2,128.5L129.3,130.3L130.7,136.3L129.9,137.9L131.5,144.6L132.9,146.3L135.7,148.2L137.5,151.7L138.8,152.5L139.9,154.8L141.8,156.6L143.1,159.8L145.3,160.7L148.3,164.5L150.3,165.1L149.7,168.4L150.5,169.8L152.7,171.5L154.7,171.9L153.9,176.4L155,177.9L154.5,179.9L155.2,181.1L154.3,183.9L155.3,185.4L157.1,185.9L158.2,187.9L164.8,187.4L172.5,189.4L174.3,188.7L179.5,191.7L181.6,195.7L182.7,196.2L187.7,197.4L189,198.3L190.6,197.6L193.7,197.4L195.7,200.6L195,201.7L195.4,203.4L198.1,205L201.6,204.1L203,205.9L211.7,212.9L213.6,215.2L215.3,218.4L216.3,222.3L215.9,223.8L216.5,228L217.3,228.9L218.1,228.8L218.4,230.9L267.2,225.9L268.5,223.7L268.5,220.8L267.5,219.4L264.9,219.3L264.1,218.1L264.8,214.2L263.7,213.2L264.3,212L263.8,210.8L265.3,210.5L267.5,207.4L267.3,204.6L268,203.8L267.4,201.4L267.8,199.3L267.3,198.7L269,196.6L269.1,195.1L274.6,191.1L273.8,189.1L270,186.6L270.1,185L269.1,183.4L268.4,180.8L265.4,177.1L265.5,174.1L238.7,147.6L213,123.1L167.3,82.2L167.3,32ZM176.6,197.5L178.6,198.2L179.9,197.6L180.2,196.3L179.3,195.6L177.1,195.7L175.4,194.6L173.6,195.5L171.9,194.5L168.6,194.2L167.5,195.6L166.5,195.1L162.7,195.8L160.8,193.8L159.7,193.4L158.7,194.1L157.5,193.7L156.7,194.7L158.4,197.5L161.9,197.9L163.3,199.8L165,200.8L168.4,199.5L169.1,198.5L170.3,199.4L172.7,199.2L175.8,198.3L176.6,197.5ZM174,213.7L174.5,215.4L176.2,216.3L178.4,216L179,215L178.7,214L176.1,212.4L174.6,212.7L174,213.7ZM109.3,110.4L111.7,113.2L113.4,112.9L113.4,111.4L111.2,109.5L110,109.4L109.3,110.4ZM183.5,208.5L184.3,210.6L186,210.2L186.3,209L185.6,207.8L184.2,207.8L183.5,208.5ZM191.7,208.9L192.6,210.8L193.9,211.5L194.1,212.9L195,213.8L197.9,214.4L199.3,213.6L199.2,211.7L197.3,209.4L194.2,207.9L192.4,208L191.7,208.9ZM191.5,219.2L193.8,224.1L195.4,225.6L196.4,225.8L198.4,225L198.5,223.7L194,218.4L192.3,218.2L191.5,219.2Z" fill="#e0e8d3" stroke="#a6afa1" stroke-width=".9" fill-rule="evenodd"/><path d="M179.7,13.4L167.3,13.4L167.3,82.2L213,123.1L238.7,147.6L265.5,174.1L266,172.6L265.2,171.8L266.5,171.2L266.6,169.9L266,166L264.6,162.7L265.1,160.1L264.4,159.2L264,155.6L264.1,154.6L264.9,154.1L263.5,151.7L263.8,150.5L263.3,149.2L266.6,147.7L267.8,147.7L267.9,148.3L270.2,147.9L272.6,150.8L274.3,150.6L274.8,148.6L276.2,146.7L276.3,13.4L179.7,13.4Z" fill="#f3f0e4" stroke="#a6afa1" stroke-width=".9" fill-rule="evenodd"/><path d="M85.4,0L85.7,0.6L83.8,2.8L85.1,4.2L85.4,8.1L86.2,9.5L86.6,11.6L88.2,13.3L190.9,13.5L221.7,13.3L221.7,0Z" fill="#f3f0e4" stroke="#a6afa1" stroke-width=".9" fill-rule="evenodd"/><path d="M322.6,13.3L276.3,13.4L276.1,128.2L360,128.2L360,36.3L331.1,36.3L331.1,13.3L322.6,13.3Z" fill="#f3f0e4" stroke="#a6afa1" stroke-width=".9" fill-rule="evenodd"/><path d="M331.1,0L331.1,36.3L345.2,36.4L360,36.3L360,0Z" fill="#f3f0e4" stroke="#a6afa1" stroke-width=".9" fill-rule="evenodd"/><path d="M336.5,128.1L276.1,128.2L276.2,146.7L274.8,148.6L274.5,150.3L272.6,150.8L270.3,147.9L269.6,147.8L268.9,148.3L267.8,148.3L267.7,147.7L265.5,147.9L263.2,149.2L263.8,150.5L263.5,151.7L264.9,154.1L264.1,154.6L264,155.6L264.4,159.2L265.1,160.1L264.6,162.7L266,166L266.6,169.9L266.5,171.2L265.2,171.8L266,172.6L265.4,173.5L265.4,177L268.4,180.8L269.1,183.4L270.1,185L270,186.6L273.8,189.1L274.6,191.1L272.8,192.8L269.4,194.7L269,196.6L267.3,198.6L267.8,199.3L267.4,201.4L268,203.8L267.3,204.6L267.5,207.4L265.3,210.5L263.8,210.8L264.3,212L263.7,213.2L264.8,214.2L264.1,218.1L264.9,219.4L265.2,219L267.7,219.6L268.5,220.8L268.5,223.7L267.2,225.9L265.8,226.4L264.2,226L262.3,228.9L262.2,231.7L293.8,244L360,244L360,128.2L336.5,128.1Z" fill="#f3f0e4" stroke="#a6afa1" stroke-width=".9" fill-rule="evenodd"/><path d="M314.1,36.2L314.3,37.6L311.8,39L310.1,41.6L306.9,43.1L304.9,37.6L303.6,40L303,39.7L300.3,35.8L298.7,31.1L296,27.6L295.1,22.5L298.2,21.2L300.1,21.1L300.7,22.4L300.1,23.9L302.6,26.4L304,26.6L305.6,31.2L306.9,30.6L306.3,26.3L306.8,25.8L309.2,27.2L312.4,27.1L312.2,28.3L309.2,28.3L308.1,29.8L312.1,34.8L314.1,36.2ZM310.5,39.1L310.8,37.3L310,35L309.3,34.7L308.8,34.9L309.1,37.1L310.5,39.1Z" fill="#dfedf0" stroke="none" stroke-width="0" fill-rule="evenodd"/><path d="M168.4,81.7L167.9,83.2L166.7,83.5L165.8,82.9L164.8,80.1L164.9,78.9L166.2,77.1L168,76.4L168.5,76.4L168.8,77.5L168.4,81.7Z" fill="#dfedf0" stroke="none" stroke-width="0" fill-rule="evenodd"/><path d="M247.6,213.8L247.5,215L246,216.9L244.3,216.7L242.1,213.2L239.3,210.2L239.5,208.6L241.4,208.2L247.6,213.8Z" fill="#dfedf0" stroke="none" stroke-width="0" fill-rule="evenodd"/><path d="M283.7,155.1L280.8,151L277.3,147.4L276.3,147.4L275,150.4L273.2,151L271.7,150.5L270.2,148.9L268.8,149.4L267.8,148.7L265.3,148.7L263.5,150.9L262.2,149.5L262.1,148.4L267.7,146.7L269.2,145.7L270,140.1L270.9,139.2L270.3,146.4L271.6,148.6L272.9,150L274.1,149.4L276.5,145.6L277.1,145.6L281.1,150.1L283.7,155.1Z" fill="#dfedf0" stroke="none" stroke-width="0" fill-rule="evenodd"/><path d="M326.6,12.5L325.5,16.2L324.5,13.6L324.7,10.3L326.2,9.9L326.6,12.5Z" fill="#dfedf0" stroke="none" stroke-width="0" fill-rule="evenodd"/><path d="M318.3,54.9L316.8,55.6L315.6,57.8L315.2,55.2L316.3,53.5L315.8,50.6L317.4,50.8L318,51.5L319.5,54.1L318.3,54.9Z" fill="#dfedf0" stroke="none" stroke-width="0" fill-rule="evenodd"/><path d="M161.4,13.6L160.1,18.1L159.2,18.2L158.5,16.3L158.6,11.8L159.8,10.8L160.5,11.2L161.4,12.4L161.4,13.6Z" fill="#dfedf0" stroke="none" stroke-width="0" fill-rule="evenodd"/><path d="M177.7,61.5L177.4,62.3L176.7,62.1L174,58.6L172.9,56.4L173.9,54.9L175,54.4L175.8,55.1L176.8,59.9L177.7,61.5Z" fill="#dfedf0" stroke="none" stroke-width="0" fill-rule="evenodd"/><path d="M174.6,126.9L174.6,127.5L172.9,128.2L174.6,126.9Z" fill="#dfedf0" stroke="none" stroke-width="0" fill-rule="evenodd"/><path d="M283.7,155.1L280.8,151L277.3,147.4L276.3,147.4L275,150.4L273.2,151L271.7,150.5L270.2,148.9L268.8,149.4L267.8,148.7L265.3,148.7L263.5,150.9L262.2,149.5L262.1,148.4L267.7,146.7L269.2,145.7L270,140.1L270.9,139.2L270.3,146.4L271.6,148.6L272.9,150L274.1,149.4L276.5,145.6L277.1,145.6L281.1,150.1L283.7,155.1Z" fill="#dfedf0" stroke="none" stroke-width="0" fill-rule="evenodd"/><path d="M343.5,107.6L342.3,111.9L334.9,123L335.7,123.8L338.3,123.4L337.8,124.2L335.7,124.3L329.9,126.4L328.5,127.7L326.3,127.8L323.6,130.1L322.2,127.5L325.7,126.8L327.2,124.8L328.1,125.5L328.9,124.4L330.6,125L332.6,124.7L334.5,120.5L335.6,120.1L336.7,118.3L336.4,116.1L337.7,116L340.1,113.7L342,110.5L342.2,108.2L342.8,107.4L343.5,107.6Z" fill="#dfedf0" stroke="none" stroke-width="0" fill-rule="evenodd"/><path d="M270.5,187.1L269.6,185.9L270.2,184.7L271.1,186.2L275.6,189.8L274.6,191.6L273.6,189.8L270.5,187.1Z" fill="#dfedf0" stroke="none" stroke-width="0" fill-rule="evenodd"/><path d="M126.5,39.2L126.6,41L128.6,40.9L128.9,41.6L123.2,42.7L123.5,40.2L124.3,41.2L126.5,39.2Z" fill="#dfedf0" stroke="none" stroke-width="0" fill-rule="evenodd"/><path d="M131.8,0L131.7,1.8L133.9,3.9L134.2,7.5L132.2,5.7L131.5,4.2L130,3.4L129.7,2.4L131.2,0Z" fill="#dfedf0" stroke="none" stroke-width="0" fill-rule="evenodd"/><text class="state-label" x="319.9" y="74.5" text-anchor="middle">UTAH</text><text class="state-label" x="229.2" y="74.6" text-anchor="middle">NEVADA</text><g class="scale" transform="translate(14 226)"><path d="M0,-5V0H66.5V-5M33.3,-3V0" fill="none" stroke="#59605a"/><text x="0" y="-9">0</text><text x="33.3" y="-9" text-anchor="middle">100</text><text x="66.5" y="-9" text-anchor="middle">200</text><text x="88.5" y="-9">mi</text></g></svg>
