<svg xmlns="http://www.w3.org/2000/svg" viewBox="0 0 360 244" width="360" height="244" role="img" aria-labelledby="title description"><title id="title">West Virginia locator</title><desc id="description">State context map for WV; an exact park location is not shown. Geography: NPS Land Resources Division, U.S. Census Bureau, Natural Earth. Regional orientation, not entrance directions.</desc><style>text{font-family:Arial,Helvetica,sans-serif;fill:#394338}.state-label{font-size:15px;letter-spacing:.25px;paint-order:stroke;stroke:#f4f1e7;stroke-width:3px;stroke-linejoin:round}.park-label{font-size:16px;font-weight:600;paint-order:stroke;stroke:#f6f3e9;stroke-width:3px;stroke-linejoin:round}.scale text{font-size:14px}</style><rect width="360" height="244" fill="#dfedf0"/><path d="M360,0L360,100.6L358.1,99.9L357.9,100.8L360,103.8L360,113.1L358.7,112.8L360,115.5L360,154L358,152.7L354.3,146.2L352.8,141.5L353.3,146.3L354.6,151.5L360,157.1L360,167.4L357,165.9L348.3,163.7L343.4,155.6L343.4,159L342.3,161.8L337.5,155.4L336.9,152.1L333.1,152.3L329.2,155.2L325.4,154.5L325,149L326,146L330.3,139.1L334.3,135.6L336,131L335.4,124L334.7,131.2L332.4,134.7L328.8,137.4L324.1,142.3L321.4,155.2L323.4,158L325.5,158.8L331.5,156.9L334.6,157.7L341.5,167.8L354.4,171.8L359.1,174.3L360,175.5L360,198.3L345.4,182.8L339.9,174.3L333.4,169.7L331.4,169.8L340.6,178.2L344.3,184.1L350.9,192.4L355.7,195.8L360,202L360,224.3L348.9,211.7L349.8,215.3L356.1,223.3L360,226.6L360,237.9L356.5,234.6L355.1,229.6L351.5,229.9L336.6,223.6L324.5,222.8L327.2,225L336.8,226.5L340.6,229.4L348.5,232L353.1,232.7L355,240.7L358.8,244L0,244L0,0Z" fill="#f5f1e5" stroke="none" stroke-width="0" fill-rule="evenodd"/><path d="M360,71.3L214.8,71.2L214.2,99.2L214.3,103.9L215,104.1L217.3,102.7L219.2,100L221.3,98.9L221.2,98.3L222.8,97.6L224,98L224.4,96.5L225.8,95.6L225.6,94.3L227.7,93.9L228.5,92.3L229.6,92.3L229.5,91.8L230.3,92.3L230.4,90.5L231.2,91.3L231.9,89.7L232.8,89.6L233,87.7L233.6,87.5L233.2,86.7L234.2,87.1L235,86.5L235.5,87.1L236,86.3L236.8,87.5L237.4,87.3L240.4,89L240.3,87.6L241.1,87.2L241.5,86.1L242.4,86.1L243.6,83.7L244.4,83.8L246.2,81L247.4,81.3L246.9,79.6L247.7,78.4L248.3,78.5L248.4,76.6L249.8,75.8L249.2,77.5L250.8,77.2L251.4,78L249.3,78.7L250.1,80L251.4,79.8L251.9,81.2L254.3,82.7L258.4,82.9L259.7,84L261.8,83.7L264.6,84.2L264.8,82.9L265.5,82.7L264.9,82L266,82.8L266,81.9L267,82.2L265.2,80.6L265.1,79.7L267.5,80.3L268.1,79.9L266.6,78.4L266.4,77.4L269.1,78.4L268.7,77.2L270.1,77.3L270.1,76.3L274.5,77.7L276.6,75.1L276.1,74.2L277.6,74L278.9,72.8L283.6,74.4L287.1,78.7L288.7,78.9L289.8,78.4L290.3,79.9L290.8,79.1L290.5,77.7L292.9,79.1L293.5,78.8L293.3,77.9L295.6,78.6L295.7,81L293.1,81.7L294.2,82.8L294.4,84.3L295.4,84.1L295.6,83.2L296.2,83.4L295.2,85.4L297.3,85.9L299.1,85.5L297.6,86.5L298.6,87.6L297.6,87.7L298.2,88.7L297.3,89.2L299.7,90.1L300.5,91.7L300.6,92.4L299.8,92.7L300.2,94.1L299.5,95.6L301.2,96.6L303.6,96.4L306.5,97.8L308.9,97.5L310.2,100.1L312.7,101.2L314.3,102.5L313.4,104.8L311.7,105.6L310.9,107.8L311.2,109.2L313,110L314.2,112.2L321.9,113.7L324.8,115.4L324.3,116.8L325.3,118.5L329.6,119.2L331,121.1L334.9,117.2L341.4,123.7L334.9,130.2L334.8,134.8L334.3,135.3L333,135.1L330.9,136.9L330.2,139.1L330.5,140.1L326.9,141.1L324.8,142.7L324.3,144.8L323.3,145.6L321.2,150.3L321,153.1L322.9,158.6L324.7,159.3L328.1,158.7L330.1,157L332.8,157L334.9,154.9L336.3,156.6L335.5,161L338.8,164L339.4,167.1L344.8,170L348.6,169.7L356.4,170.9L356.8,173.6L359.8,175.6L360,176.5Z" fill="#f3f0e4" stroke="#a6afa1" stroke-width=".9" fill-rule="evenodd"/><path d="M163.4,0L163.4,71.2L337.4,71.3L360,71.3L360,0Z" fill="#f3f0e4" stroke="#a6afa1" stroke-width=".9" fill-rule="evenodd"/><path d="M0,0L0,135L2.4,136.2L3.1,138.8L8.1,140.6L9.1,140.2L10.2,137.3L15.3,135.8L18,137.5L23.4,138.8L24.9,139.9L25.4,141.7L26.3,142.5L28.9,140.5L31,141.2L33.5,141.1L35.5,137.8L38.4,136.3L39.5,134.3L42.4,134.2L46.4,132.4L47.4,133.5L47.1,136.6L48.8,143L51.1,144.7L54.5,144.9L55.9,145.9L58.1,149L60.2,150.4L61.1,153.8L62.2,154.7L63.8,154.7L70.4,152.5L71.5,152.8L74.1,152.1L75.4,148.9L76,143.6L77.4,142.4L80.4,142.8L81.7,141.8L80.9,137.2L81.4,135.4L80.8,133.6L81.1,134.5L81.1,133.9L79.4,130.4L83.2,127.1L83.3,123.4L85.8,118.6L87.8,117.3L88.5,115.4L90.1,115.1L91.4,117.4L92.7,117.2L93.6,117.7L95.4,121.4L93.9,123.7L95.1,124.8L95.8,124.9L97.5,123.7L98.9,120.4L102.1,121.7L102.3,120.9L101.1,119.2L102,116L99.8,113.5L99.5,111.9L101.4,112L102.9,110.8L103,107.9L102.4,105.5L103.9,103.3L105.5,102.6L105.3,100.7L106,99.8L107.8,99.4L111.5,100L112.2,95.5L117.2,91L119.3,91.9L120.2,94.6L121.1,95.3L122.7,95L126.3,92.5L128.9,92.4L130.5,89.6L133.1,88.7L136.2,84.3L141,79.6L143.2,77.9L145.6,77.6L146.4,73.1L148.1,71.8L146.1,68.4L148.2,66.3L148.2,63.4L150,62L149.2,58.9L151.7,59L151.3,56.7L152.5,55.4L152.9,50.8L152.6,48.6L154,47.2L154.2,43.8L156,40.9L156.8,38L158.4,36.8L159.2,34.1L159,30.1L157.8,28.8L158.8,28L159.6,23.4L156,16.6L158,14.3L159.5,13.9L160.5,14.6L163.4,13.1L163.4,0Z" fill="#f3f0e4" stroke="#a6afa1" stroke-width=".9" fill-rule="evenodd"/><path d="M360,244L359.8,175.6L356.8,173.6L356.4,170.9L348.6,169.7L344.8,170L339.4,167.1L338.8,164L335.5,161L336.3,156.6L334.9,154.9L332.8,157L330.1,157L328.9,158.4L323.8,159.2L321.9,156.5L321,152.9L321.6,149L324.3,144.8L324.8,142.7L326.9,141.1L330.5,140.1L330.2,139.1L330.9,136.9L333,135.1L334.3,135.3L334.7,134.8L335.1,127.7L334.5,127L335.2,127.1L335.3,126.4L334.9,125L333.5,123.3L331.8,122.5L329.7,119.2L327,119L324.8,118L324.3,116.8L324.7,115.3L320.3,113L314.4,112.3L313,110L311.3,109.3L310.9,107.8L311.4,106.2L313.3,104.9L314.3,102.7L312.9,101.3L310.1,100L309,97.5L306.5,97.8L303.5,96.4L300.9,96.9L296.1,108.5L270.5,87.4L270.5,89.8L269.9,91L270.7,92.3L269.5,94.2L270.9,94.8L266.9,100.6L267.9,101.5L266,104.4L267.7,106.3L264.9,109.8L263.2,110.5L259.4,114.9L260.5,115.8L257.9,119.2L256.6,118.1L253.2,122.4L252.1,122.9L252.2,121L248.8,124.1L244.7,132L238.3,126.7L236.9,130.1L235.6,130.5L235.5,132.1L234.1,134.4L233.7,138.5L231.9,138.8L229.9,144.3L228.1,147.1L227.9,149.1L226.5,150.5L226.3,151.5L225.7,151.4L224.3,153L224.3,153.8L222.9,154.2L214.8,151.3L211.8,145.4L206.3,142.8L205.3,145.4L205.1,146.8L205.6,147.7L204.7,148L203.9,149.4L204.3,153L202.3,156.2L202.5,157.3L201.7,157.9L200.6,157.7L200.2,159.1L198.3,160.9L199.4,163.3L196.6,165L192.9,168.8L193,170.5L191.7,171.9L192.6,173.6L191.2,175.2L189,180.6L183.9,185.5L183.2,186.8L181,188.2L180,189.7L180.1,190.5L177.7,193.1L178.3,194.5L177.6,194.4L176.3,195.8L176,196.9L176.5,197.7L174.4,199.8L175.8,202.7L178.1,203.9L176.2,206L172.8,207.9L173.6,209.1L172.7,209.7L173.7,210.3L175.1,209.9L173.7,211.8L170.9,213L170.6,213.7L165.5,216.9L164.6,216.1L164.7,214.7L163.8,213.2L161.8,213.7L153.7,219.1L151,220.1L150.3,218.7L146.6,216.5L145.4,219.4L147.1,221.7L144.6,223.7L141.3,225.2L140.6,225.1L140.7,224.5L134.5,225.9L128.6,228.8L121.7,222.3L121.3,223.4L120.2,223.6L119.1,226.4L117.6,226.4L116,227.8L115.1,227.4L114.6,228.9L112.3,230.5L106.2,230.9L104,228.5L103.2,228.6L102.3,226.2L97.8,225.6L97.2,223.7L93.9,220.9L93.5,219.6L94.2,217.6L93.4,217L93.5,215.9L91,214.9L90.5,213.8L90.8,213L92.6,212.6L92.7,211.9L94,211.2L93.6,210.8L93.1,211.2L93.1,210L91.9,209.6L74.3,225.8L73.4,225.9L73.1,226.7L65.8,229.3L59.1,233.9L54.8,236L54.7,240.9L53.7,241L53.5,242.2L52.9,242L51.7,243.2L49.5,243.3L49.4,244Z" fill="#f3f0e4" stroke="#a6afa1" stroke-width=".9" fill-rule="evenodd"/><path d="M331,121.1L335,125.2L335.3,126.8L334.5,127L335,127.7L335,130.1L341.4,123.7L334.9,117.2L331,121.1Z" fill="#f3f0e4" stroke="#a6afa1" stroke-width=".9" fill-rule="evenodd"/><path d="M62.5,231.3L68.7,228L73.1,226.7L73.4,225.9L74.3,225.8L92.1,209.3L90.4,209.3L89.8,209.9L88.3,209L88.1,210.2L86.6,208.5L85.2,208.7L85.2,208.2L83.8,208.7L83.2,207.7L84.1,207.3L84.1,206.5L82.6,206.1L82.3,204.4L81.4,204.3L81.7,202.6L80.9,202.8L81.1,204L79.8,204.1L78.7,201.9L77.6,202.1L76.4,200.9L76.1,201.4L75.3,200.9L75.7,199.2L73.9,196.6L75,195.2L73.9,195.3L74.4,194.6L73.7,194.6L71.3,191.8L70.6,192.4L70.7,191.1L69.4,189.1L70.3,188.7L69.6,187.6L67.5,185.7L67,186.7L66.3,185.5L66.7,185L65.6,184.6L66.2,184.2L65.8,183.7L67.1,182.9L66.5,182.2L67.2,182L67.4,181.3L66.5,181.3L66.3,180.4L64.8,180.2L63.2,175.9L61.6,174.6L61.4,173.4L59,171.6L58.6,169.8L60.2,169.5L60.8,166.5L60.2,165.3L60.5,164.6L61.6,164.7L62,163.6L61.6,161.5L62.2,160.2L60.9,158.4L61.1,153.6L60.1,150.3L57.9,148.8L55.9,145.9L54.5,144.9L51.1,144.7L48.8,143L47.1,136.6L47.3,133.2L46.2,132.4L42.2,134.3L39.7,134.2L38,136.6L35.5,137.8L33.6,141L31,141.2L28.9,140.5L26.6,142.5L25.4,141.8L24.9,139.9L23.2,138.7L18,137.5L15.4,135.8L10.2,137.3L9.1,140.2L8.1,140.6L3.1,138.8L2.4,136.2L0,135L0,244L49.4,244L49.5,243.3L51.7,243.2L52.9,242L53.5,242.2L53.7,241L54.7,240.8L54.8,236L59.1,233.9L62.5,231.3Z" fill="#f3f0e4" stroke="#a6afa1" stroke-width=".9" fill-rule="evenodd"/><path d="M299.7,95.8L299.4,95.2L300.3,94L299.8,92.7L300.6,92.4L300.5,91.7L299.5,89.9L297.3,89.2L298.2,88.7L297.6,87.7L298.6,87.6L297.6,86.5L299.1,85.5L297.3,85.9L295.2,85.4L296.2,83.4L295.6,83.2L295.4,84.1L294.4,84.3L294.2,82.8L293.1,81.7L295.7,81L295.8,78.7L293.3,77.9L293.5,78.8L292.9,79.1L290.5,77.7L290.7,79.3L290.3,79.9L289.8,78.4L288.7,78.9L287.1,78.7L283.6,74.4L278.9,72.8L277.6,74L276.1,74.2L276.6,75.1L274.5,77.7L270.1,76.3L270.1,77.3L268.7,77.2L269.1,78.4L266.4,77.4L266.6,78.4L268.1,79.9L267.5,80.3L265.1,79.7L265.2,80.6L267,82.2L266,81.9L266,82.8L264.9,82L265.5,82.7L264.8,82.9L264.3,84.2L261.8,83.7L259.7,84L258.5,82.9L255.3,83.1L253.6,82.3L251.9,81.2L251.4,79.8L250.8,80.2L249.8,79.7L249.3,78.6L251.4,77.9L250.8,77.2L249.3,77.5L249.9,76L249.4,76L248.1,77.1L248.3,78.5L247.7,78.4L246.9,79.6L247.4,81.3L246.2,81L244.4,83.8L243.6,83.7L242.4,86.1L241.5,86.1L241.1,87.2L240.3,87.6L240.4,89L237.4,87.3L236.8,87.5L236,86.3L235.5,87.1L235,86.5L234.2,87.1L233.2,86.7L233.6,87.5L233,87.7L232.8,89.6L231.9,89.7L231.2,91.3L230.4,90.5L230.3,92.3L229.5,91.8L229.6,92.3L228.5,92.3L227.7,93.9L225.6,94.3L225.8,95.6L224.4,96.5L224,98L222.8,97.6L221.2,98.3L221.3,98.9L219.2,100L217.3,102.7L215,104.1L214.3,103.9L214.8,71.2L163.4,71.2L163.4,13.1L160.5,14.6L159.5,13.9L158.1,14.3L156,16.9L158,19.6L158.5,21.7L159.6,23.4L158.8,28L157.8,28.8L158.9,29.8L159.4,33.4L158.4,36.8L156.8,38L156,40.9L154.2,43.8L154,47.2L152.6,48.6L152.9,50.8L152.5,55.4L151.3,56.7L151.7,59L149.2,58.9L150,62L148.2,63.4L148.2,66.3L146.1,68.4L148.1,71.8L146.4,73.1L145.6,77.6L143.2,77.9L141,79.6L136.2,84.3L133.1,88.7L130.5,89.6L128.9,92.4L126.3,92.5L122.7,95L121.1,95.3L120.2,94.6L119.3,91.9L117.2,91L112.2,95.5L111.5,100L107.8,99.4L106,99.8L105.3,100.7L105.5,102.6L103.9,103.3L102.4,105.5L103,107.9L102.9,110.8L101.4,112L99.5,111.9L99.8,113.5L102,116L101.1,119.2L102.3,120.9L102.1,121.7L98.9,120.4L97.5,123.7L95.8,124.9L95.1,124.8L93.9,123.7L95.4,121.4L93.6,117.7L92.7,117.2L91.4,117.4L90.1,115.1L88.5,115.4L87.8,117.3L85.8,118.6L83.3,123.4L83.2,127.1L79.4,130.4L81.1,133.9L81.1,134.5L80.8,133.6L81.4,135.4L80.9,137.2L81.9,140.6L81.6,142.1L80.2,142.8L77.4,142.4L76,143.6L75.4,148.9L74.1,152.1L71.5,152.8L70.4,152.5L63.7,154.7L62.1,154.6L61.1,153.6L60.9,158.4L62.2,160.2L61.6,161.5L62,163.6L61.6,164.7L60.5,164.6L60.2,165.3L60.8,167.8L60.2,169.5L58.6,169.8L59,171.6L61.4,173.4L61.6,174.6L63.2,175.9L64.8,180.2L66.3,180.4L66.5,181.3L67.4,181.3L67.2,182L66.5,182.2L67.1,182.9L65.6,184.5L66.7,185L66.3,185.5L67,186.7L67.5,185.7L69.6,187.6L70.3,188.7L69.4,189.1L70.7,191.1L70.6,192.4L71.3,191.8L73.7,194.6L74.4,194.6L73.9,195.3L75,195.2L73.9,196.6L75.7,199.2L75.3,200.9L76.1,201.4L76.4,200.9L77.6,202.1L78.7,201.9L79.8,204.1L81.1,204L80.9,202.8L81.7,202.6L81.4,204.3L82.3,204.4L82.6,206.1L84.1,206.5L84.1,207.3L83.2,207.7L83.8,208.7L86.6,208.5L88.1,210.2L88.2,209L89.8,209.9L91.8,209.1L91.9,209.9L93.1,210L93.1,211.2L94,211.1L92.7,211.9L92.7,212.5L90.8,213L90.6,213.9L91,214.9L93.5,215.9L93.4,217L94.2,217.6L93.5,219.6L93.9,220.9L97.2,223.7L97.8,225.6L102.3,226.2L103.2,228.6L104,228.5L106.2,230.9L112.3,230.5L114.6,228.9L115.1,227.4L116,227.8L117.6,226.4L119.1,226.4L120.2,223.6L121.3,223.4L121.7,222.3L128.6,228.8L134.5,225.9L140.7,224.5L140.8,225.2L142.4,224.9L147.1,221.7L145.4,219.4L146.6,216.5L150.3,218.7L151,220.1L153.7,219.1L161.8,213.7L163.8,213.2L164.7,214.7L164.6,216.1L165.5,216.9L170.6,213.7L170.9,213L174.2,211.5L175.1,209.9L173.7,210.3L172.7,209.7L173.6,209.1L172.8,207.9L176.2,206L178.1,203.9L175.8,202.7L174.4,199.8L176.5,197.7L176,196.9L176.3,195.8L177.6,194.4L178.3,194.5L177.7,193.1L180.1,190.5L180,189.7L181,188.2L183.2,186.8L183.9,185.5L189,180.6L191.2,175.2L192.6,173.6L191.7,171.9L193,170.5L192.9,168.8L196.6,165L199.4,163.3L198.3,160.9L200.2,159.1L200.6,157.7L201.7,157.9L202.5,157.3L202.3,156.2L204.3,153L203.9,149.4L204.7,148L205.6,147.7L205.1,146.8L205.3,145.4L206.3,142.8L211.8,145.4L214.8,151.3L222.9,154.2L224.3,153.8L224.3,153L225.7,151.4L226.3,151.5L226.5,150.5L227.9,149.1L228.1,147.1L229.9,144.3L231.9,138.8L233.7,138.5L234.1,134.4L235.5,132.1L235.6,130.5L236.9,130.1L238.3,126.7L244.7,132L248.8,124.1L252.2,121L252.1,122.9L253.2,122.4L256.6,118.1L257.9,119.2L260.5,115.8L259.4,114.9L263.2,110.5L264.9,109.8L267.7,106.3L266,104.4L267.9,101.5L266.9,100.6L270.9,94.8L269.5,94.2L270.7,92.3L269.9,91L270.5,89.8L270.5,87.4L296.1,108.5L298.9,100.7L301.4,96.6L299.7,95.8Z" fill="#e0e8d3" stroke="#a6afa1" stroke-width=".9" fill-rule="evenodd"/><text class="state-label" x="261.7" y="35.7" text-anchor="middle">PENNSYLVANIA</text><text class="state-label" x="55.2" y="27.3" text-anchor="middle">OHIO</text><text class="state-label" x="240" y="164" text-anchor="middle">VIRGINIA</text><text class="state-label" x="158.5" y="139.3" text-anchor="middle">WEST VIRGINIA</text><g class="scale" transform="translate(14 226)"><path d="M0,-5V0H45.9V-5" fill="none" stroke="#59605a"/><text x="0" y="-9">0</text><text x="45.9" y="-9" text-anchor="middle">50</text><text x="67.9" y="-9">mi</text></g></svg>
